<svg width="453" height="426" viewBox="0 0 453 426" fill="none" xmlns="http://www.w3.org/2000/svg">
<path d="M285 283.418C285 311.602 276.643 339.153 260.984 362.587C245.326 386.021 223.071 404.286 197.032 415.071C170.994 425.857 142.342 428.678 114.7 423.18C87.0573 417.682 61.6663 404.11 41.7373 384.181C21.8083 364.252 8.23649 338.861 2.7381 311.219C-2.7603 283.576 0.0616791 254.924 10.8472 228.886C21.6327 202.847 39.8972 180.592 63.3312 164.934C86.7653 149.276 114.316 140.918 142.5 140.918V201.67C126.332 201.67 110.526 206.464 97.083 215.447C83.6396 224.43 73.1617 237.197 66.9744 252.134C60.787 267.072 59.1681 283.509 62.3224 299.367C65.4767 315.224 73.2625 329.79 84.6952 341.223C96.1279 352.656 110.694 360.442 126.552 363.596C142.409 366.75 158.846 365.131 173.784 358.944C188.721 352.757 201.489 342.279 210.471 328.835C219.454 315.392 224.248 299.587 224.248 283.418H285Z" fill="#3660EB"/>
<path fill-rule="evenodd" clip-rule="evenodd" d="M270.933 0H453V60.689V120.407V121.378H452.997C452.742 158.767 437.779 194.57 411.322 221.028C384.635 247.714 348.441 262.706 310.701 262.706C272.961 262.706 236.766 247.714 210.08 221.028C183.394 194.342 168.401 158.147 168.401 120.407L229.068 120.407C229.068 142.058 237.668 162.821 252.977 178.13C268.287 193.44 289.05 202.04 310.701 202.04C332.351 202.04 353.115 193.44 368.424 178.13C383.504 163.05 392.075 142.677 392.328 121.378H392.311V60.689L270.933 60.689V0Z" fill="#3660EB"/>
</svg>
