<svg width="428" height="386" viewBox="0 0 428 386" fill="none" xmlns="http://www.w3.org/2000/svg">
<path d="M273 283.418C273 311.602 264.643 339.153 248.984 362.587C233.326 386.021 211.071 404.286 185.032 415.071C158.994 425.857 130.342 428.679 102.7 423.18C75.0573 417.682 49.6663 404.11 29.7373 384.181C9.8083 364.252 -3.76351 338.861 -9.2619 311.219C-14.7603 283.576 -11.9383 254.924 -1.15283 228.886C9.63266 202.847 27.8972 180.592 51.3312 164.934C74.7652 149.276 102.316 140.918 130.5 140.918L130.5 201.67C114.332 201.67 98.5265 206.464 85.083 215.447C71.6396 224.43 61.1617 237.197 54.9744 252.134C48.787 267.072 47.1681 283.509 50.3224 299.367C53.4767 315.224 61.2625 329.79 72.6952 341.223C84.1279 352.656 98.6941 360.442 114.552 363.596C130.409 366.75 146.846 365.131 161.784 358.944C176.721 352.757 189.489 342.279 198.471 328.835C207.454 315.392 212.248 299.587 212.248 283.418H273Z" fill="#3660EB"/>
<path fill-rule="evenodd" clip-rule="evenodd" d="M258.933 0H441V60.689V120.407V121.378H440.997C440.742 158.767 425.779 194.57 399.322 221.028C372.635 247.714 336.441 262.706 298.701 262.706C260.961 262.706 224.766 247.714 198.08 221.028C171.394 194.342 156.401 158.147 156.401 120.407L217.068 120.407C217.068 142.058 225.668 162.821 240.977 178.13C256.287 193.44 277.05 202.04 298.701 202.04C320.351 202.04 341.115 193.44 356.424 178.13C371.504 163.05 380.075 142.677 380.328 121.378H380.311V60.689L258.933 60.689V0Z" fill="#3660EB"/>
</svg>
