<svg width="74" height="69" viewBox="0 0 74 69" fill="none" xmlns="http://www.w3.org/2000/svg">
<path d="M46.1708 45.9146C46.1708 50.4804 44.8169 54.9438 42.2802 58.7402C39.7436 62.5365 36.1381 65.4954 31.9198 67.2427C27.7015 68.99 23.0598 69.4472 18.5817 68.5564C14.1035 67.6657 9.99012 65.467 6.76156 62.2384C3.53301 59.0099 1.33434 54.8965 0.44358 50.4183C-0.447176 45.9402 0.0099922 41.2985 1.75727 37.0802C3.50455 32.8619 6.46347 29.2564 10.2598 26.7198C14.0562 24.1831 18.5196 22.8292 23.0854 22.8292V32.6711C20.4661 32.6711 17.9056 33.4478 15.7277 34.903C13.5499 36.3582 11.8524 38.4266 10.85 40.8465C9.84768 43.2665 9.58541 45.9293 10.0964 48.4983C10.6074 51.0672 11.8687 53.427 13.7209 55.2791C15.573 57.1313 17.9328 58.3926 20.5017 58.9036C23.0707 59.4146 25.7335 59.1523 28.1535 58.15C30.5734 57.1476 32.6418 55.4501 34.097 53.2723C35.5522 51.0944 36.3289 48.5339 36.3289 45.9146H46.1708Z" fill="#F2FA5B"/>
<path fill-rule="evenodd" clip-rule="evenodd" d="M43.8919 0H73.3873V9.83179L73.3873 19.5063V19.6636H73.3868C73.3455 25.7208 70.9215 31.521 66.6353 35.8072C62.312 40.1304 56.4484 42.5592 50.3344 42.5592C44.2204 42.5592 38.3568 40.1304 34.0336 35.8072C29.7103 31.4839 27.2815 25.6203 27.2815 19.5063L37.1096 19.5063C37.1096 23.0137 38.5029 26.3775 40.9831 28.8577C43.4632 31.3378 46.827 32.7311 50.3344 32.7311C53.8419 32.7311 57.2056 31.3378 59.6858 28.8577C62.1288 26.4146 63.5173 23.1142 63.5583 19.6636H63.5555V9.83179L43.8919 9.83179V0Z" fill="#FEFCBF"/>
</svg>
