<svg width="22" height="24" viewBox="0 0 22 24" fill="none" xmlns="http://www.w3.org/2000/svg">
<g id="&#240;&#159;&#166;&#134; icon &#34;trash&#34;">
<path id="Vector" d="M1 5.37988H3.18998H20.7098" stroke="black" stroke-width="2" stroke-linecap="round" stroke-linejoin="round"/>
<rect id="Rectangle 41" x="4" y="5" width="14" height="18" fill="black"/>
<path id="Vector_2" d="M18.5198 5.37996V20.7098C18.5198 21.2906 18.2891 21.8477 17.8784 22.2584C17.4677 22.6691 16.9106 22.8998 16.3298 22.8998H5.37992C4.7991 22.8998 4.24207 22.6691 3.83137 22.2584C3.42067 21.8477 3.18994 21.2906 3.18994 20.7098V5.37996M6.47491 5.37996V3.18998C6.47491 2.60916 6.70564 2.05213 7.11634 1.64143C7.52704 1.23073 8.08407 1 8.66489 1H13.0448C13.6257 1 14.1827 1.23073 14.5934 1.64143C15.0041 2.05213 15.2348 2.60916 15.2348 3.18998V5.37996" stroke="black" stroke-width="2" stroke-linecap="round" stroke-linejoin="round"/>
</g>
</svg>
